<?xml version="1.0" encoding="UTF-8"?>
<svg id="Camada_2" data-name="Camada 2" xmlns="http://www.w3.org/2000/svg" xmlns:xlink="http://www.w3.org/1999/xlink" viewBox="0 0 649.33 267">
  <defs>
    <style>
      .cls-1 {
        fill: url(#Gradiente_sem_nome_112-14);
      }

      .cls-2 {
        fill: url(#Gradiente_sem_nome_112-21);
      }

      .cls-3 {
        fill: url(#Gradiente_sem_nome_112);
      }

      .cls-4 {
        fill: url(#Gradiente_sem_nome_112-3);
      }

      .cls-5 {
        fill: url(#Gradiente_sem_nome_112-26);
      }

      .cls-6 {
        fill: url(#Gradiente_sem_nome_112-16);
      }

      .cls-7 {
        fill: url(#Gradiente_sem_nome_112-17);
      }

      .cls-8 {
        fill: url(#Gradiente_sem_nome_112-10);
      }

      .cls-9 {
        fill: url(#Gradiente_sem_nome_112-2);
      }

      .cls-10 {
        fill: url(#Gradiente_sem_nome_112-9);
      }

      .cls-11 {
        fill: url(#Gradiente_sem_nome_112-30);
      }

      .cls-12 {
        fill: url(#Gradiente_sem_nome_112-27);
      }

      .cls-13 {
        fill: url(#Gradiente_sem_nome_112-37);
      }

      .cls-14 {
        fill: url(#Gradiente_sem_nome_112-33);
      }

      .cls-15 {
        fill: url(#Gradiente_sem_nome_112-15);
      }

      .cls-16 {
        fill: url(#Gradiente_sem_nome_112-5);
      }

      .cls-17 {
        fill: url(#Gradiente_sem_nome_112-31);
      }

      .cls-18 {
        fill: url(#Gradiente_sem_nome_112-20);
      }

      .cls-19 {
        fill: url(#Gradiente_sem_nome_112-11);
      }

      .cls-20 {
        fill: url(#Gradiente_sem_nome_112-12);
      }

      .cls-21 {
        fill: url(#Gradiente_sem_nome_112-32);
      }

      .cls-22 {
        fill: url(#Gradiente_sem_nome_112-22);
      }

      .cls-23 {
        fill: url(#Gradiente_sem_nome_112-29);
      }

      .cls-24 {
        fill: url(#Gradiente_sem_nome_112-38);
      }

      .cls-25 {
        fill: url(#Gradiente_sem_nome_112-4);
      }

      .cls-26 {
        fill: url(#Gradiente_sem_nome_112-24);
      }

      .cls-27 {
        fill: url(#Gradiente_sem_nome_112-36);
      }

      .cls-28 {
        fill: url(#Gradiente_sem_nome_112-19);
      }

      .cls-29 {
        fill: url(#Gradiente_sem_nome_112-8);
      }

      .cls-30 {
        fill: url(#Gradiente_sem_nome_112-18);
      }

      .cls-31 {
        fill: url(#Gradiente_sem_nome_112-7);
      }

      .cls-32 {
        fill: url(#Gradiente_sem_nome_112-28);
      }

      .cls-33 {
        fill: url(#Gradiente_sem_nome_112-23);
      }

      .cls-34 {
        fill: url(#Gradiente_sem_nome_112-35);
      }

      .cls-35 {
        fill: url(#Gradiente_sem_nome_112-6);
      }

      .cls-36 {
        fill: url(#Gradiente_sem_nome_112-25);
      }

      .cls-37 {
        fill: url(#Gradiente_sem_nome_112-13);
      }

      .cls-38 {
        fill: url(#Gradiente_sem_nome_112-34);
      }
    </style>
    <radialGradient id="Gradiente_sem_nome_112" data-name="Gradiente sem nome 112" cx="324.66" cy="52.75" fx="324.66" fy="52.75" r="229.46" gradientUnits="userSpaceOnUse">
      <stop offset="0" stop-color="#eaff15"/>
      <stop offset=".05" stop-color="#ebfa13"/>
      <stop offset=".44" stop-color="#f5dc08"/>
      <stop offset=".77" stop-color="#fac902"/>
      <stop offset="1" stop-color="#fdc300"/>
    </radialGradient>
    <radialGradient id="Gradiente_sem_nome_112-2" data-name="Gradiente sem nome 112" cx="324.66" cy="52.75" fx="324.66" fy="52.75" r="229.46" xlink:href="#Gradiente_sem_nome_112"/>
    <radialGradient id="Gradiente_sem_nome_112-3" data-name="Gradiente sem nome 112" r="229.46" xlink:href="#Gradiente_sem_nome_112"/>
    <radialGradient id="Gradiente_sem_nome_112-4" data-name="Gradiente sem nome 112" cx="324.66" fx="324.66" r="229.46" xlink:href="#Gradiente_sem_nome_112"/>
    <radialGradient id="Gradiente_sem_nome_112-5" data-name="Gradiente sem nome 112" cx="324.66" fx="324.66" r="229.46" xlink:href="#Gradiente_sem_nome_112"/>
    <radialGradient id="Gradiente_sem_nome_112-6" data-name="Gradiente sem nome 112" cx="324.66" fx="324.66" r="229.46" xlink:href="#Gradiente_sem_nome_112"/>
    <radialGradient id="Gradiente_sem_nome_112-7" data-name="Gradiente sem nome 112" cx="324.66" cy="222.01" fx="324.66" fy="222.01" r="231.77" xlink:href="#Gradiente_sem_nome_112"/>
    <radialGradient id="Gradiente_sem_nome_112-8" data-name="Gradiente sem nome 112" cx="324.66" cy="222.01" fx="324.66" fy="222.01" r="231.77" xlink:href="#Gradiente_sem_nome_112"/>
    <radialGradient id="Gradiente_sem_nome_112-9" data-name="Gradiente sem nome 112" cx="324.66" cy="222.01" fx="324.66" fy="222.01" r="231.77" xlink:href="#Gradiente_sem_nome_112"/>
    <radialGradient id="Gradiente_sem_nome_112-10" data-name="Gradiente sem nome 112" cx="324.66" cy="222.01" fx="324.66" fy="222.01" r="231.77" xlink:href="#Gradiente_sem_nome_112"/>
    <radialGradient id="Gradiente_sem_nome_112-11" data-name="Gradiente sem nome 112" cy="222.01" fy="222.01" r="231.77" xlink:href="#Gradiente_sem_nome_112"/>
    <radialGradient id="Gradiente_sem_nome_112-12" data-name="Gradiente sem nome 112" cx="324.66" cy="222.01" fx="324.66" fy="222.01" r="231.77" xlink:href="#Gradiente_sem_nome_112"/>
    <radialGradient id="Gradiente_sem_nome_112-13" data-name="Gradiente sem nome 112" cx="324.66" cy="222.01" fx="324.66" fy="222.01" r="231.77" xlink:href="#Gradiente_sem_nome_112"/>
    <radialGradient id="Gradiente_sem_nome_112-14" data-name="Gradiente sem nome 112" cy="141.26" fy="141.26" r="229.06" xlink:href="#Gradiente_sem_nome_112"/>
    <radialGradient id="Gradiente_sem_nome_112-15" data-name="Gradiente sem nome 112" cx="324.66" cy="141.26" fx="324.66" fy="141.26" r="229.06" xlink:href="#Gradiente_sem_nome_112"/>
    <radialGradient id="Gradiente_sem_nome_112-16" data-name="Gradiente sem nome 112" cx="324.66" cy="141.22" fx="324.66" fy="141.22" r="229.07" xlink:href="#Gradiente_sem_nome_112"/>
    <radialGradient id="Gradiente_sem_nome_112-17" data-name="Gradiente sem nome 112" cx="324.66" cy="141.26" fx="324.66" fy="141.26" r="229.06" xlink:href="#Gradiente_sem_nome_112"/>
    <radialGradient id="Gradiente_sem_nome_112-18" data-name="Gradiente sem nome 112" cx="324.66" cy="141.26" fx="324.66" fy="141.26" r="229.06" xlink:href="#Gradiente_sem_nome_112"/>
    <radialGradient id="Gradiente_sem_nome_112-19" data-name="Gradiente sem nome 112" cx="324.66" cy="141.26" fx="324.66" fy="141.26" r="229.06" xlink:href="#Gradiente_sem_nome_112"/>
    <radialGradient id="Gradiente_sem_nome_112-20" data-name="Gradiente sem nome 112" cx="324.66" cy="141.26" fx="324.66" fy="141.26" r="229.06" xlink:href="#Gradiente_sem_nome_112"/>
    <radialGradient id="Gradiente_sem_nome_112-21" data-name="Gradiente sem nome 112" cx="324.66" cy="141.26" fx="324.66" fy="141.26" r="229.06" xlink:href="#Gradiente_sem_nome_112"/>
    <radialGradient id="Gradiente_sem_nome_112-22" data-name="Gradiente sem nome 112" cx="324.66" cy="141.26" fx="324.66" fy="141.26" r="229.06" xlink:href="#Gradiente_sem_nome_112"/>
    <radialGradient id="Gradiente_sem_nome_112-23" data-name="Gradiente sem nome 112" cx="324.66" cy="141.26" fx="324.66" fy="141.26" r="229.06" xlink:href="#Gradiente_sem_nome_112"/>
    <radialGradient id="Gradiente_sem_nome_112-24" data-name="Gradiente sem nome 112" cx="324.66" cy="141.26" fx="324.66" fy="141.26" r="229.06" xlink:href="#Gradiente_sem_nome_112"/>
    <radialGradient id="Gradiente_sem_nome_112-25" data-name="Gradiente sem nome 112" cx="324.66" cy="141.26" fx="324.66" fy="141.26" r="229.01" xlink:href="#Gradiente_sem_nome_112"/>
    <radialGradient id="Gradiente_sem_nome_112-26" data-name="Gradiente sem nome 112" cx="324.66" cy="141.26" fx="324.66" fy="141.26" r="229.06" xlink:href="#Gradiente_sem_nome_112"/>
    <radialGradient id="Gradiente_sem_nome_112-27" data-name="Gradiente sem nome 112" cx="379.06" cy="50.09" fx="379.06" fy="50.09" r="8.26" xlink:href="#Gradiente_sem_nome_112"/>
    <radialGradient id="Gradiente_sem_nome_112-28" data-name="Gradiente sem nome 112" cx="379.07" cy="70.27" fx="379.07" fy="70.27" r="7.24" xlink:href="#Gradiente_sem_nome_112"/>
    <radialGradient id="Gradiente_sem_nome_112-29" data-name="Gradiente sem nome 112" cx="411.18" cy="63.9" fx="411.18" fy="63.9" r="12.65" xlink:href="#Gradiente_sem_nome_112"/>
    <radialGradient id="Gradiente_sem_nome_112-30" data-name="Gradiente sem nome 112" cx="379.07" cy="61.42" fx="379.07" fy="61.42" r="6.84" xlink:href="#Gradiente_sem_nome_112"/>
    <radialGradient id="Gradiente_sem_nome_112-31" data-name="Gradiente sem nome 112" cx="403.92" cy="38.23" fx="403.92" fy="38.23" r="13.64" xlink:href="#Gradiente_sem_nome_112"/>
    <radialGradient id="Gradiente_sem_nome_112-32" data-name="Gradiente sem nome 112" cx="407.13" cy="52.54" fx="407.13" fy="52.54" r="10.18" xlink:href="#Gradiente_sem_nome_112"/>
    <radialGradient id="Gradiente_sem_nome_112-33" data-name="Gradiente sem nome 112" cx="379.07" cy="37.5" fx="379.07" fy="37.5" r="3.26" xlink:href="#Gradiente_sem_nome_112"/>
    <radialGradient id="Gradiente_sem_nome_112-34" data-name="Gradiente sem nome 112" cx="393.77" cy="19.61" fx="393.77" fy="19.61" r="6.05" xlink:href="#Gradiente_sem_nome_112"/>
    <radialGradient id="Gradiente_sem_nome_112-35" data-name="Gradiente sem nome 112" cx="417.82" cy="22.23" fx="417.82" fy="22.23" r="5.07" xlink:href="#Gradiente_sem_nome_112"/>
    <radialGradient id="Gradiente_sem_nome_112-36" data-name="Gradiente sem nome 112" cx="410.32" cy="16.04" fx="410.32" fy="16.04" r="4.39" xlink:href="#Gradiente_sem_nome_112"/>
    <radialGradient id="Gradiente_sem_nome_112-37" data-name="Gradiente sem nome 112" cx="532.15" cy="175.04" fx="532.15" fy="175.04" r="14.11" xlink:href="#Gradiente_sem_nome_112"/>
    <radialGradient id="Gradiente_sem_nome_112-38" data-name="Gradiente sem nome 112" cx="561.34" cy="178.67" fx="561.34" fy="178.67" r="12.24" xlink:href="#Gradiente_sem_nome_112"/>
  </defs>
  <g id="Camada_1-2" data-name="Camada 1">
    <g>
      <g>
        <path class="cls-3" d="M118.89,84.05c-5.65,6.75-12.97,12.01-21.96,15.79-9,3.78-19,5.67-30,5.67-12.06,0-22.82-2.27-32.3-6.82s-16.87-10.81-22.18-18.81c-5.31-7.99-7.97-17.01-7.97-27.06s2.68-19.07,8.04-27.06c5.36-7.99,12.8-14.28,22.32-18.88C44.36,2.3,55.2,0,67.35,0s22.23,2.15,31.37,6.46c9.14,4.31,16.32,10.29,21.53,17.94,5.21,7.66,8.06,16.32,8.54,25.98h-24.26c-.1-6.7-1.77-12.54-5.02-17.51-3.25-4.97-7.66-8.83-13.21-11.56-5.55-2.73-11.87-4.09-18.95-4.09s-13.49,1.39-18.95,4.16c-5.46,2.78-9.69,6.72-12.7,11.84-3.01,5.12-4.52,11.13-4.52,18.02v2.87c0,6.89,1.48,12.92,4.45,18.09,2.96,5.17,7.18,9.14,12.63,11.91,5.45,2.78,11.82,4.16,19.09,4.16,5.65,0,10.79-.88,15.43-2.66,4.64-1.77,8.54-4.28,11.7-7.54h-24.12v-17.08h59.14c-1.44,8.61-4.98,16.29-10.62,23.04Z"/>
        <path class="cls-9" d="M155.56,99.26c-6.46-3.3-11.46-8.09-15-14.36-3.54-6.27-5.31-13.8-5.31-22.61V2.01h25.7v61.73c0,7.56,1.41,13.09,4.23,16.58,2.82,3.49,7.15,5.24,12.99,5.24s10.05-1.77,12.92-5.31c2.87-3.54,4.31-9.04,4.31-16.51V2.01h25.7v60.29c0,8.81-1.75,16.34-5.24,22.61-3.49,6.27-8.47,11.05-14.93,14.36-6.46,3.3-14,4.95-22.61,4.95s-16.29-1.65-22.75-4.95Z"/>
        <path class="cls-4" d="M226.83,2.01h26.41v101.2h-26.41V2.01Z"/>
        <path class="cls-25" d="M301.05,2.01h31.15l42.06,101.2h-27.42l-3.73-4.31c-4.98-5.65-9.17-10.21-12.56-13.71-3.4-3.49-7.15-6.48-11.27-8.97-4.12-2.49-8.23-3.73-12.35-3.73-3.25,0-5.79.77-7.61,2.3-1.82,1.53-3.3,3.88-4.45,7.03l-8.47,21.39h-27.42L301.05,2.01ZM321.94,60c4.74,4.31,9.55,9.76,14.43,16.36l-19.81-50.39-9.91,25.41c5.46,1.44,10.55,4.31,15.29,8.61Z"/>
        <path class="cls-16" d="M437.42,2.01h43.35c11.96,0,22.63,2.15,32.01,6.46,9.38,4.31,16.67,10.31,21.89,18.02,5.21,7.7,7.82,16.44,7.82,26.2s-2.63,18.35-7.9,26.05c-5.26,7.7-12.59,13.71-21.96,18.02-9.38,4.31-20,6.46-31.87,6.46h-43.35V2.01ZM498.86,82.11c5.46-2.58,9.67-6.29,12.63-11.13,2.96-4.83,4.45-10.5,4.45-17.01v-2.73c0-6.41-1.48-12.03-4.45-16.87-2.97-4.83-7.2-8.56-12.7-11.2-5.5-2.63-11.84-3.95-19.02-3.95h-15.79v66.75h15.79c7.27,0,13.64-1.29,19.09-3.88Z"/>
        <path class="cls-35" d="M571.64,2.01h31.15l42.06,101.2h-27.42l-3.73-4.31c-4.98-5.65-9.17-10.21-12.56-13.71-3.4-3.49-7.15-6.48-11.27-8.97-4.12-2.49-8.23-3.73-12.35-3.73-3.25,0-5.79.77-7.61,2.3-1.82,1.53-3.3,3.88-4.45,7.03l-8.47,21.39h-27.42L571.64,2.01ZM592.53,60c4.74,4.31,9.55,9.76,14.43,16.36l-19.81-50.39-9.9,25.41c5.45,1.44,10.55,4.31,15.29,8.61Z"/>
      </g>
      <g>
        <path class="cls-31" d="M642.47,199.2c-4.57-6.8-10.96-12.09-19.16-15.88-8.2-3.79-17.53-5.69-28-5.69-6.67,0-12.88.79-18.65,2.34l-.31,1.1-.02.18h-.03l-.12.44c-.53,1.86-1.52,3.51-2.94,4.93-1.39,1.38-3.15,2.46-5.22,3.22-2.03.74-4.28,1.11-6.69,1.11-1.83,0-3.55-.21-5.15-.63-3.16,2.64-5.88,5.64-8.15,9.01-4.57,6.8-6.86,14.48-6.86,23.05s2.29,16.25,6.86,23.05c4.57,6.8,10.94,12.09,19.1,15.88,8.16,3.79,17.43,5.69,27.81,5.69s19.94-1.89,28.18-5.69c8.24-3.79,14.67-9.09,19.28-15.88,4.61-6.8,6.92-14.48,6.92-23.05s-2.29-16.38-6.86-23.18ZM626.21,223.49c0,8.98-2.8,16.01-8.41,21.08-5.61,5.07-13.1,7.6-22.5,7.6s-17.14-2.55-22.75-7.66c-5.61-5.11-8.41-12.11-8.41-21.01v-2.47c0-8.9,2.82-15.88,8.47-20.95,5.64-5.07,13.2-7.6,22.68-7.6s16.89,2.53,22.5,7.6c5.6,5.07,8.41,12.05,8.41,20.95v2.47Z"/>
        <path class="cls-29" d="M530.48,227.2c-3.83-3.3-8.37-5.77-13.6-7.42-5.23-1.65-11.89-3.25-19.96-4.82-6.43-1.24-11.37-2.41-14.83-3.52-3.46-1.11-5.95-2.35-7.48-3.71-1.53-1.36-2.29-3.07-2.29-5.13,0-3.46,1.59-6.06,4.76-7.79,3.17-1.73,7.73-2.6,13.66-2.6,7.25,0,12.9,1.38,16.93,4.14,4.04,2.76,5.85,6.74,5.44,11.93h21.01c-.08-6.18-1.9-11.6-5.44-16.25-.34-.45-.71-.88-1.08-1.31-1.65-.22-3.18-.7-4.56-1.43-2.02-1.06-3.62-2.55-4.75-4.41-.39-.65-.71-1.33-.97-2.03-1.15-.58-2.33-1.13-3.59-1.63-6.43-2.55-13.97-3.83-22.62-3.83-8.16,0-15.39,1.11-21.69,3.34-6.3,2.23-11.21,5.34-14.71,9.33-3.5,4-5.25,8.51-5.25,13.54,0,5.36,1.89,9.68,5.69,12.98,3.79,3.3,8.26,5.77,13.41,7.42,5.15,1.65,11.8,3.3,19.96,4.94,6.51,1.24,11.52,2.41,15.02,3.52,3.5,1.11,6.01,2.41,7.54,3.89,1.52,1.48,2.29,3.34,2.29,5.56,0,6.76-6.43,10.14-19.28,10.14-7.83,0-13.91-1.38-18.23-4.14-4.33-2.76-6.28-6.74-5.87-11.93h-21.01c.08,6.18,1.96,11.6,5.62,16.25,3.67,4.66,8.82,8.26,15.45,10.82,6.63,2.56,14.4,3.83,23.3,3.83,8.32,0,15.74-1.11,22.25-3.34,6.51-2.23,11.58-5.36,15.2-9.39,3.63-4.04,5.44-8.65,5.44-13.84s-1.92-9.81-5.75-13.1Z"/>
        <path class="cls-10" d="M21.08,263.05c-6.63-2.55-11.79-6.16-15.45-10.82-3.67-4.65-5.54-10.07-5.62-16.25h21.01c-.41,5.19,1.55,9.17,5.87,11.93,4.33,2.76,10.4,4.14,18.23,4.14,12.86,0,19.28-3.38,19.28-10.14,0-2.23-.76-4.08-2.29-5.56-1.53-1.48-4.04-2.78-7.54-3.89-3.5-1.11-8.51-2.29-15.02-3.52-8.16-1.65-14.81-3.3-19.96-4.94-5.15-1.65-9.62-4.12-13.41-7.42-3.79-3.3-5.69-7.62-5.69-12.98,0-5.03,1.75-9.54,5.25-13.54,3.5-4,8.41-7.11,14.71-9.33,6.3-2.23,13.54-3.34,21.69-3.34,8.65,0,16.19,1.28,22.62,3.83,6.43,2.56,11.41,6.16,14.96,10.82,3.54,4.66,5.36,10.07,5.44,16.25h-21.01c.41-5.19-1.4-9.17-5.44-11.93-4.04-2.76-9.68-4.14-16.93-4.14-5.93,0-10.49.87-13.66,2.6-3.17,1.73-4.76,4.33-4.76,7.79,0,2.06.76,3.77,2.29,5.13,1.52,1.36,4.02,2.6,7.48,3.71,3.46,1.11,8.41,2.29,14.83,3.52,8.08,1.57,14.73,3.17,19.96,4.82,5.23,1.65,9.77,4.12,13.6,7.42,3.83,3.3,5.75,7.66,5.75,13.1s-1.81,9.81-5.44,13.84c-3.63,4.04-8.7,7.17-15.2,9.39-6.51,2.23-13.93,3.34-22.25,3.34-8.9,0-16.67-1.28-23.3-3.83Z"/>
        <path class="cls-8" d="M109.7,262.37c-5.56-2.84-9.87-6.96-12.92-12.36-3.05-5.4-4.57-11.89-4.57-19.47v-51.92h22.13v53.15c0,6.51,1.21,11.27,3.65,14.28,2.43,3.01,6.16,4.51,11.19,4.51s8.65-1.52,11.13-4.57c2.47-3.05,3.71-7.79,3.71-14.22v-53.15h22.13v51.92c0,7.58-1.5,14.07-4.51,19.47-3.01,5.4-7.29,9.52-12.86,12.36-5.56,2.84-12.05,4.26-19.47,4.26s-14.03-1.42-19.59-4.26Z"/>
        <path class="cls-19" d="M266.07,251.31c-4.74,4.78-10.61,8.49-17.61,11.12-7.01,2.64-14.88,3.96-23.61,3.96-10.38,0-19.65-1.89-27.81-5.69-8.16-3.79-14.52-9.09-19.1-15.88-4.57-6.8-6.86-14.48-6.86-23.05s2.29-16.25,6.86-23.05c4.57-6.8,10.98-12.11,19.22-15.95,8.24-3.83,17.59-5.75,28.06-5.75,12.86,0,23.77,2.84,32.76,8.53,8.98,5.69,15.04,13.39,18.17,23.12h-21.01c-2.06-5.36-5.77-9.5-11.13-12.42-5.36-2.92-11.62-4.39-18.79-4.39-9.48,0-17.04,2.53-22.68,7.6-5.65,5.07-8.47,12.05-8.47,20.95v2.47c0,8.9,2.8,15.91,8.41,21.01,5.6,5.11,13.18,7.66,22.74,7.66,7.25,0,13.55-1.46,18.91-4.39,5.36-2.92,9.06-7.15,11.12-12.67h21.01c-2.06,6.43-5.46,12.03-10.2,16.81Z"/>
        <path class="cls-20" d="M281.21,178.62h70.58v14.83h-47.84v20.27h43.51v14.71h-43.51v22.5h47.84v14.83h-70.58v-87.15Z"/>
        <path class="cls-37" d="M377.82,263.05c-6.63-2.55-11.79-6.16-15.45-10.82-3.67-4.65-5.54-10.07-5.62-16.25h21.01c-.41,5.19,1.55,9.17,5.87,11.93,4.33,2.76,10.4,4.14,18.23,4.14,12.86,0,19.28-3.38,19.28-10.14,0-2.23-.76-4.08-2.29-5.56-1.53-1.48-4.04-2.78-7.54-3.89-3.5-1.11-8.51-2.29-15.02-3.52-8.16-1.65-14.81-3.3-19.96-4.94-5.15-1.65-9.62-4.12-13.41-7.42-3.79-3.3-5.69-7.62-5.69-12.98,0-5.03,1.75-9.54,5.25-13.54,3.5-4,8.41-7.11,14.71-9.33,6.3-2.23,13.53-3.34,21.69-3.34,8.65,0,16.19,1.28,22.62,3.83,6.43,2.56,11.41,6.16,14.96,10.82,3.54,4.66,5.36,10.07,5.44,16.25h-21.01c.41-5.19-1.4-9.17-5.44-11.93-4.04-2.76-9.68-4.14-16.93-4.14-5.93,0-10.49.87-13.66,2.6-3.17,1.73-4.76,4.33-4.76,7.79,0,2.06.76,3.77,2.29,5.13,1.52,1.36,4.02,2.6,7.48,3.71,3.46,1.11,8.41,2.29,14.83,3.52,8.08,1.57,14.73,3.17,19.96,4.82,5.23,1.65,9.77,4.12,13.6,7.42,3.83,3.3,5.75,7.66,5.75,13.1s-1.81,9.81-5.44,13.84c-3.63,4.04-8.7,7.17-15.2,9.39-6.51,2.23-13.93,3.34-22.25,3.34-8.9,0-16.67-1.28-23.3-3.83Z"/>
      </g>
      <g>
        <path class="cls-1" d="M1.97,113.71h23.6c6.51,0,12.32,1.17,17.43,3.52,5.11,2.34,9.08,5.62,11.92,9.81,2.84,4.19,4.26,8.95,4.26,14.26s-1.43,9.99-4.3,14.19c-2.87,4.19-6.85,7.46-11.96,9.81-5.11,2.34-10.89,3.52-17.35,3.52H1.97v-55.1ZM35.42,157.32c2.97-1.41,5.26-3.43,6.88-6.06,1.61-2.63,2.42-5.72,2.42-9.26v-1.49c0-3.49-.81-6.55-2.42-9.18-1.62-2.63-3.92-4.66-6.92-6.1-3-1.43-6.45-2.15-10.36-2.15h-8.6v36.34h8.6c3.96,0,7.42-.7,10.39-2.11Z"/>
        <path class="cls-15" d="M62.3,113.71h14.38v55.1h-14.38v-55.1Z"/>
        <path class="cls-6" d="M93.13,167.09c-4.19-1.61-7.45-3.89-9.77-6.84-2.32-2.94-3.5-6.37-3.56-10.28h13.29c-.26,3.28.98,5.8,3.71,7.54,2.74,1.75,6.58,2.62,11.53,2.62,8.13,0,12.19-2.14,12.19-6.41,0-1.41-.48-2.58-1.45-3.52-.96-.94-2.55-1.76-4.77-2.46-2.22-.7-5.38-1.45-9.5-2.23-5.16-1.04-9.37-2.08-12.62-3.13-3.26-1.04-6.08-2.6-8.48-4.69-2.4-2.08-3.59-4.82-3.59-8.21,0-3.18,1.11-6.03,3.32-8.56,2.21-2.53,5.31-4.49,9.3-5.9,3.99-1.41,8.56-2.11,13.72-2.11,5.47,0,10.24.81,14.3,2.42,4.06,1.62,7.22,3.9,9.46,6.84,2.24,2.94,3.39,6.37,3.44,10.28h-13.29c.26-3.28-.89-5.8-3.44-7.54-2.55-1.75-6.12-2.62-10.71-2.62-3.75,0-6.63.55-8.64,1.64-2.01,1.09-3.01,2.74-3.01,4.92,0,1.3.48,2.38,1.45,3.24.96.86,2.54,1.64,4.73,2.34,2.19.7,5.31,1.45,9.38,2.23,5.11.99,9.31,2.01,12.62,3.05,3.31,1.04,6.17,2.61,8.6,4.69,2.42,2.08,3.63,4.85,3.63,8.28s-1.15,6.2-3.44,8.75c-2.29,2.55-5.5,4.53-9.61,5.94-4.12,1.41-8.81,2.11-14.07,2.11-5.63,0-10.54-.81-14.73-2.42Z"/>
        <path class="cls-7" d="M155.46,123.09h-19.54v-9.38h53.46v9.38h-19.54v45.72h-14.38v-45.72Z"/>
        <path class="cls-30" d="M192.51,113.71h24.46c4.06,0,7.68.66,10.86,1.99,3.18,1.33,5.65,3.15,7.42,5.47,1.77,2.32,2.66,4.94,2.66,7.85,0,2.4-.69,4.52-2.07,6.37-1.38,1.85-3.32,3.35-5.82,4.49,1.09.78,2.24,1.89,3.44,3.32,1.2,1.43,2.24,2.85,3.13,4.26l13.13,21.34h-15.16l-9.22-15.87c-1.67-2.86-3.31-4.98-4.92-6.33-1.62-1.35-3.44-2.03-5.47-2.03-1.25,0-2.67.42-4.26,1.25-1.59.83-2.85,1.77-3.79,2.81v20.16h-14.38v-55.1ZM206.89,122.31v16.18c.73-1.15,1.78-2.07,3.17-2.77,1.38-.7,2.93-1.06,4.65-1.06,1.41,0,2.74.21,3.99.63.47.16.89.23,1.25.23,1.09,0,1.95-.48,2.58-1.45.63-.96.94-2.15.94-3.56,0-2.14-.69-4.04-2.07-5.71-1.38-1.67-3.4-2.5-6.06-2.5h-8.44Z"/>
        <path class="cls-28" d="M252.84,113.71h14.38v55.1h-14.38v-55.1Z"/>
        <path class="cls-18" d="M270.35,113.71h26.03c4.32,0,8.15.6,11.49,1.8,3.33,1.2,5.91,2.88,7.74,5.04,1.82,2.16,2.74,4.62,2.74,7.39s-.87,5.25-2.62,7.46c-1.75,2.22-3.97,3.87-6.68,4.96,4.01,1.04,7.16,2.74,9.46,5.08,2.29,2.34,3.44,5.08,3.44,8.21s-1.03,5.68-3.09,7.97c-2.06,2.29-4.91,4.06-8.56,5.31-3.65,1.25-7.82,1.88-12.5,1.88h-27.43v-55.1ZM301.69,134.03c1.46-1.2,2.19-2.84,2.19-4.92s-.86-3.67-2.58-4.61c-1.72-.94-4.51-1.41-8.36-1.41h-8.21v12.74h10.63c2.76,0,4.87-.6,6.33-1.8ZM304.77,157.67c2.01-1.17,3.01-2.98,3.01-5.43,0-4.74-3.78-7.11-11.33-7.11h-11.72v14.3h10.55c4.32,0,7.49-.59,9.5-1.76Z"/>
        <path class="cls-2" d="M336.11,166.66c-3.52-1.8-6.24-4.4-8.17-7.82-1.93-3.41-2.89-7.52-2.89-12.31v-32.82h13.99v33.61c0,4.12.77,7.13,2.31,9.03,1.54,1.9,3.9,2.85,7.07,2.85s5.47-.96,7.03-2.89c1.56-1.93,2.35-4.92,2.35-8.99v-33.61h13.99v32.82c0,4.79-.95,8.9-2.85,12.31-1.9,3.41-4.61,6.02-8.13,7.82-3.52,1.8-7.62,2.7-12.31,2.7s-8.87-.9-12.39-2.7Z"/>
        <path class="cls-22" d="M374.92,113.71h14.38v55.1h-14.38v-55.1Z"/>
        <path class="cls-33" d="M392.42,113.71h23.6c6.51,0,12.32,1.17,17.43,3.52,5.11,2.34,9.08,5.62,11.92,9.81,2.84,4.19,4.26,8.95,4.26,14.26s-1.43,9.99-4.3,14.19c-2.87,4.19-6.85,7.46-11.96,9.81-5.11,2.34-10.89,3.52-17.35,3.52h-23.6v-55.1ZM425.87,157.32c2.97-1.41,5.26-3.43,6.88-6.06,1.61-2.63,2.42-5.72,2.42-9.26v-1.49c0-3.49-.81-6.55-2.42-9.18-1.62-2.63-3.92-4.66-6.92-6.1-3-1.43-6.45-2.15-10.36-2.15h-8.6v36.34h8.6c3.96,0,7.42-.7,10.39-2.11Z"/>
        <path class="cls-26" d="M469.17,166c-5.16-2.4-9.18-5.74-12.07-10.04-2.89-4.3-4.34-9.16-4.34-14.58s1.45-10.28,4.34-14.58c2.89-4.3,6.94-7.66,12.15-10.08,5.21-2.42,11.12-3.63,17.74-3.63s12.52,1.2,17.7,3.59c5.18,2.4,9.22,5.74,12.11,10.04s4.34,9.18,4.34,14.65-1.46,10.28-4.38,14.58c-2.92,4.3-6.98,7.65-12.19,10.04-5.21,2.4-11.15,3.59-17.82,3.59s-12.43-1.2-17.58-3.59ZM501.21,155.41c3.54-3.2,5.31-7.65,5.31-13.33v-1.56c0-5.63-1.77-10.04-5.31-13.25-3.54-3.2-8.28-4.81-14.22-4.81s-10.77,1.6-14.34,4.81c-3.57,3.2-5.35,7.62-5.35,13.25v1.56c0,5.63,1.77,10.06,5.31,13.29,3.54,3.23,8.34,4.85,14.38,4.85s10.68-1.6,14.22-4.81Z"/>
        <path class="cls-36" d="M607.5,113.71h16.96l22.9,55.1h-14.93l-2.03-2.34c-2.71-3.07-4.99-5.56-6.84-7.46-1.85-1.9-3.9-3.53-6.14-4.88-2.24-1.35-4.48-2.03-6.72-2.03-1.77,0-3.15.42-4.14,1.25-.99.83-1.8,2.11-2.42,3.83l-4.61,11.65h-14.93l22.9-55.1ZM618.88,145.29c2.58,2.34,5.2,5.31,7.86,8.91l-10.79-27.43-5.39,13.83c2.97.78,5.74,2.34,8.32,4.69Z"/>
        <path class="cls-5" d="M530.14,166.31c1.99,0,3.93.56,5.77,1.66.44.26.86.54,1.25.83v-9.59h1.49v-10.56c.94-1.04,2.2-1.98,3.79-2.81,1.59-.83,3.01-1.25,4.26-1.25,2.03,0,3.86.68,5.47,2.03,1.61,1.36,3.26,3.47,4.92,6.33l8,13.76c1.43.25,2.76.65,3.99,1.19.61.27,1.19.58,1.73.91h10.66l-13.13-21.34c-.89-1.41-1.93-2.83-3.13-4.26-1.2-1.43-2.34-2.54-3.44-3.32,2.5-1.15,4.44-2.64,5.82-4.49,1.38-1.85,2.07-3.97,2.07-6.37,0-2.92-.89-5.54-2.66-7.85-1.77-2.32-4.25-4.14-7.43-5.47s-6.8-1.99-10.86-1.99h-24.46v53.65c1.76-.7,3.72-1.06,5.87-1.06ZM538.65,122.31h8.44c2.66,0,4.68.83,6.06,2.5,1.38,1.67,2.07,3.57,2.07,5.71,0,1.41-.31,2.59-.94,3.56-.62.96-1.48,1.45-2.58,1.45-.37,0-.78-.08-1.25-.23-1.25-.42-2.58-.63-3.99-.63-1.72,0-3.27.35-4.65,1.06s-2.44,1.63-3.17,2.77v-16.18Z"/>
      </g>
      <g>
        <path class="cls-12" d="M370.17,55.71c.18-1.81,1.3-3.32,2.58-4.51.14-2.98.98-5.86,1.96-8.66l8.73.04c.95,2.79,1.81,5.65,1.94,8.62,1.15,1.04,2.58,2.92,2.58,4.55v1.89h-3.82c-2.56-3.36-7.66-3.3-10.26-.02l-3.72.02c.05-.62-.06-1.32,0-1.93Z"/>
        <path class="cls-32" d="M370.17,65.19l3.72.02c2.6,3.28,7.69,3.34,10.26-.02h3.82v6.76c0,1.18-1.27,2.79-2.41,3.13l-.95.27h-11.08c-1.8-.3-3.05-1.56-3.36-3.36v-6.8Z"/>
        <path class="cls-23" d="M405.2,74.88c-1.77-.21-3.42-1.35-4.3-2.88l-3.82-9.36,5.07-2c5.55,3.05,12.26.4,14.04-5.68l5.17-2.07,3.78,9.47c.6,3.24-.92,5.36-3.75,6.67-3.87,1.8-9.14,3.94-13.17,5.32-.51.17-1.28.47-1.78.53-.31.04-.94.04-1.25,0Z"/>
        <path class="cls-11" d="M370.17,60.16h5.14c1.03-1.76,2.56-2.9,4.69-2.41,1.3.3,2.11,1.35,2.79,2.41h5.16v2.52h-5.16c-.77,1.03-1.54,2.1-2.88,2.41-2.07.47-3.71-.61-4.61-2.41h-5.15s0-2.51,0-2.51Z"/>
        <path class="cls-17" d="M410.1,35.12c3.64.91,6.01,3.78,7.04,7.28l-5.14,2.12c-1.2-.51-2.41-1.13-3.74-1.25-4.91-.44-8.85,2.28-10.31,6.93l-5.12,2.07c-1.32-2.92-1.86-5.55-.72-8.65.16-.44.73-1.24.72-1.64-1.41-4.07-1.84-8.35-2.13-12.63l.14-.5,11.65-4.67c3.01,3.28,5.73,6.88,7.62,10.95Z"/>
        <path class="cls-21" d="M395.59,59.14l-1.25-3.49,6.96-2.79c.39-3.2,2.56-6.15,6.07-5.95,1.64.09,2.81,1.05,4.14,1.85l6.93-2.82c.14-.06.18.05.24.15.18.29,1.16,2.73,1.22,3.05.02.09.08.17,0,.26l-6.94,2.81c-.25.19-.48,1.71-.66,2.21-1.28,3.49-5,4.8-8.21,2.89-.35-.21-1.17-.94-1.43-.93l-7.06,2.75Z"/>
        <rect class="cls-14" x="375.21" y="34.98" width="7.72" height="5.04"/>
        <polygon class="cls-38" points="397.7 14.05 400.27 20.92 389.96 25.16 387.26 18.16 397.7 14.05"/>
        <path class="cls-34" d="M422.65,18.68c.17-.04.2.08.26.19.32.58.89,2.38,1.06,3.07.03.12.14.18-.04.28l-11.18,3.56c-.32-1.04-.84-2.11-1.1-3.16-.03-.12-.14-.18.04-.28l10.96-3.67Z"/>
        <path class="cls-27" d="M410.19,21.16l-3.37-1.57,3.7-8.67c.17,0,2.88,1.34,3.11,1.52.11.08.22.13.2.29l-3.63,8.43Z"/>
      </g>
      <g>
        <path class="cls-13" d="M546.13,160.81v28.11h-7.38v-4.39c-.8,1.33-2.03,2.45-3.69,3.37s-3.41,1.38-5.24,1.38c-2.26,0-4.27-.46-6.04-1.4-1.77-.93-3.14-2.21-4.13-3.83-.98-1.62-1.48-3.44-1.48-5.46s.5-3.88,1.5-5.5c1-1.62,2.4-2.89,4.21-3.81,1.81-.92,3.89-1.38,6.26-1.38,1.7,0,3.35.48,4.94,1.44,1.6.96,2.82,2.07,3.67,3.35v-11.88h7.38ZM528.33,173.21c-.84.51-1.5,1.2-1.99,2.09-.49.89-.74,1.91-.74,3.05v.52c0,1.12.25,2.12.74,3.01.49.89,1.16,1.59,1.99,2.09.84.51,1.76.76,2.77.76,1.06,0,2.09-.28,3.09-.84,1-.56,1.8-1.3,2.41-2.23.61-.93.92-1.95.92-3.07s-.31-2.11-.94-3.05c-.63-.94-1.43-1.69-2.41-2.25-.98-.56-2.01-.84-3.07-.84s-1.93.25-2.77.76Z"/>
        <path class="cls-24" d="M572.11,185.49c-1.24,1.22-2.79,2.17-4.65,2.85-1.86.68-3.91,1.02-6.14,1.02-2.63,0-4.98-.46-7.04-1.38-2.06-.92-3.67-2.19-4.82-3.81-1.16-1.62-1.73-3.46-1.73-5.5s.58-3.88,1.73-5.5c1.16-1.62,2.77-2.89,4.84-3.81s4.43-1.38,7.06-1.38,5.02.46,7.08,1.38,3.66,2.19,4.81,3.81c1.14,1.62,1.71,3.46,1.71,5.5,0,.45-.01.78-.04,1h-19.7c.16,1.6.78,2.85,1.87,3.77,1.09.92,2.51,1.38,4.27,1.38,1.41,0,2.61-.31,3.59-.92.98-.61,1.69-1.49,2.11-2.63h7.58c-.45,1.6-1.3,3-2.53,4.23ZM564.55,173.23c-.9-.46-1.97-.7-3.19-.7s-2.3.24-3.23.72-1.65,1.14-2.15,1.99h10.73c-.53-.88-1.25-1.55-2.15-2.01Z"/>
      </g>
    </g>
  </g>
</svg>